<svg width="1806" height="379" viewBox="0 0 1806 379" fill="none" xmlns="http://www.w3.org/2000/svg">
<path d="M903 66.6667C916.807 66.6667 928 55.4738 928 41.6667C928 27.8596 916.807 16.6667 903 16.6667C889.193 16.6667 878 27.8596 878 41.6667C878 55.4738 889.193 66.6667 903 66.6667ZM903 66.6667V183.333M903 183.333C880.899 183.333 859.702 174.554 844.074 158.926C828.446 143.298 819.667 122.101 819.667 100H844.667M903 183.333C925.101 183.333 946.298 174.554 961.926 158.926C977.554 143.298 986.333 122.101 986.333 100H961.333" stroke="#BDD0FF" stroke-width="31" stroke-linecap="round" stroke-linejoin="round"/>
<path d="M58.252 310.826C58.252 309.557 57.8613 308.71 57.0801 308.287C56.3314 307.864 55.2246 307.652 53.7598 307.652H31.1035V304.137H53.7598C59.0983 304.137 61.7676 306.367 61.7676 310.826C61.7676 313.333 61.0352 315.139 59.5703 316.246C58.1055 317.353 56.1686 317.906 53.7598 317.906H31.1035V314.391H53.7598C56.7546 314.391 58.252 313.202 58.252 310.826ZM29.1504 339H25.6348V279.234H53.7598C55.9733 279.234 57.8613 279.918 59.4238 281.285C60.9863 282.62 61.7676 284.296 61.7676 286.314C61.7676 288.984 61.0352 290.921 59.5703 292.125C58.1055 293.297 56.1686 293.883 53.7598 293.883H31.1035V290.367H53.7598C56.7546 290.367 58.252 289.016 58.252 286.314C58.252 285.208 57.8288 284.345 56.9824 283.727C56.1361 283.076 55.0618 282.75 53.7598 282.75H29.1504V339ZM31.1035 297.398H53.7598C56.9824 297.398 59.7005 296.438 61.9141 294.518C64.1602 292.564 65.2832 289.83 65.2832 286.314C65.2832 283.482 64.1113 281.008 61.7676 278.893C59.4564 276.777 56.7871 275.719 53.7598 275.719H22.1191V339H18.6035V272.203H53.7598C57.7637 272.203 61.263 273.619 64.2578 276.451C67.2852 279.251 68.7988 282.538 68.7988 286.314C68.7988 289.277 68.099 291.865 66.6992 294.078C65.332 296.292 63.4766 298.001 61.1328 299.205C66.2435 301.028 68.7988 304.739 68.7988 310.338C68.7988 314.765 67.334 318.313 64.4043 320.982C61.4746 323.619 57.9264 324.938 53.7598 324.938H31.1035V321.422H53.7598C56.9824 321.422 59.7005 320.462 61.9141 318.541C64.1602 316.588 65.2832 313.854 65.2832 310.338C65.2832 307.962 64.4368 305.862 62.7441 304.039C61.0514 302.216 58.5612 301.158 55.2734 300.865C54.9479 300.898 54.4434 300.914 53.7598 300.914H31.1035V297.398ZM75.8301 286.314C75.8301 290.872 74.2188 294.99 70.9961 298.668C74.2188 302.249 75.8301 306.139 75.8301 310.338C75.8301 314.407 74.8047 318.118 72.7539 321.471C70.7357 324.791 68.0339 327.379 64.6484 329.234C61.2956 331.057 57.666 331.969 53.7598 331.969H31.1035V328.453H53.7598C58.8379 328.453 63.1999 326.76 66.8457 323.375C70.4915 319.957 72.3145 315.611 72.3145 310.338C72.3145 308.45 71.8262 306.367 70.8496 304.088C69.9056 301.777 68.5872 300.019 66.8945 298.814C70.5078 295.429 72.3145 291.262 72.3145 286.314C72.3145 281.562 70.459 277.444 66.748 273.961C63.0371 270.445 58.7077 268.688 53.7598 268.688H15.0879V339H11.5723V265.172H53.7598C57.6335 265.172 61.263 266.132 64.6484 268.053C68.0664 269.941 70.7845 272.529 72.8027 275.816C74.821 279.072 75.8301 282.571 75.8301 286.314ZM75 298.863C77.8971 294.99 79.3457 290.807 79.3457 286.314C79.3457 281.92 78.1738 277.835 75.8301 274.059C73.5189 270.25 70.3939 267.239 66.4551 265.025C62.5163 262.779 58.2845 261.656 53.7598 261.656H8.05664V339H4.54102V258.141H53.7598C58.903 258.141 63.7044 259.41 68.1641 261.949C72.6562 264.488 76.2207 267.939 78.8574 272.301C81.5267 276.63 82.8613 281.301 82.8613 286.314C82.8613 291.1 81.5104 295.299 78.8086 298.912C81.5104 302.656 82.8613 306.464 82.8613 310.338C82.8613 314.7 82.0801 318.704 80.5176 322.35C78.9551 325.963 76.8392 328.974 74.1699 331.383C71.5332 333.792 68.457 335.663 64.9414 336.998C61.4258 338.333 57.6986 339 53.7598 339H31.1035V335.484H53.7598C57.1777 335.484 60.4492 334.85 63.5742 333.58C66.6992 332.278 69.4173 330.52 71.7285 328.307C74.0397 326.093 75.8789 323.424 77.2461 320.299C78.6458 317.174 79.3457 313.854 79.3457 310.338C79.3457 308.775 78.9714 306.904 78.2227 304.723C77.5065 302.509 76.4323 300.556 75 298.863ZM88.0371 258.141H91.8457L121.924 334.264L152.002 258.141H155.762L123.828 339H120.02L88.0371 258.141ZM124.365 321.422L122.363 325.914L95.6055 258.141H99.3652L124.365 321.422ZM128.125 311.803L126.27 316.637L103.174 258.141H106.982L128.125 311.803ZM131.836 302.037L129.98 306.969L110.742 258.141H114.502L131.836 302.037ZM174.658 258.141H178.467L146.484 339H142.725L174.658 258.141ZM167.139 258.141H170.898L138.916 339H135.156L167.139 258.141ZM159.521 258.141H163.33L131.348 339H127.588L159.521 258.141ZM231.201 339H227.686V258.141H266.602V261.656H231.201V265.172H266.602V268.688H231.201V272.203H266.602V275.719H231.201V293.297H264.941V296.812H231.201V300.328H264.941V303.844H231.201V307.359H264.941V310.875H231.201V339ZM224.17 339H220.654V258.141H224.17V339ZM217.139 339H213.623V258.141H217.139V339ZM210.107 339H206.592V258.141H210.107V339ZM296.045 258.141H299.561V339H296.045V258.141ZM289.014 258.141H292.529V339H289.014V258.141ZM281.982 258.141H285.498V339H281.982V258.141ZM274.951 258.141H278.467V339H274.951V258.141ZM366.26 300.084L362.744 294.273V258.141H366.26V300.084ZM373.291 311.607L369.775 305.699V258.141H373.291V311.607ZM380.322 323.277L376.807 317.32V258.141H380.322V323.277ZM329.932 297.057L333.447 302.867V339H329.932V297.057ZM322.9 285.533L326.416 291.441V339H322.9V285.533ZM315.869 273.863L319.385 279.82V339H315.869V273.863ZM317.09 258.141H321.191L370.898 339H366.797L317.09 258.141ZM325.391 258.141H329.541L379.199 339H375L325.391 258.141ZM333.643 258.141H337.744L383.838 333.287V258.141H387.354V339C387.354 339 385.97 339 383.203 339L333.643 258.141ZM312.354 263.854V339H308.838V258.141C308.838 258.141 310.238 258.141 313.037 258.141L362.598 339H358.545L312.354 263.854ZM454.053 300.084L450.537 294.273V258.141H454.053V300.084ZM461.084 311.607L457.568 305.699V258.141H461.084V311.607ZM468.115 323.277L464.6 317.32V258.141H468.115V323.277ZM417.725 297.057L421.24 302.867V339H417.725V297.057ZM410.693 285.533L414.209 291.441V339H410.693V285.533ZM403.662 273.863L407.178 279.82V339H403.662V273.863ZM404.883 258.141H408.984L458.691 339H454.59L404.883 258.141ZM413.184 258.141H417.334L466.992 339H462.793L413.184 258.141ZM421.436 258.141H425.537L471.631 333.287V258.141H475.146V339C475.146 339 473.763 339 470.996 339L421.436 258.141ZM400.146 263.854V339H396.631V258.141C396.631 258.141 398.031 258.141 400.83 258.141L450.391 339H446.338L400.146 263.854ZM502.002 339H498.486V258.141H502.002V339ZM494.971 339H491.455V258.141H494.971V339ZM487.939 339H484.424V258.141H487.939V339ZM509.033 321.422H546.436V324.938H509.033V328.453H546.436V331.969H509.033V335.484H546.436V339H505.518V258.141H546.436V261.656H509.033V265.172H546.436V268.688H509.033V272.203H546.436V275.719H509.033V289.781H528.223V293.297H509.033V296.812H528.223V300.328H509.033V303.844H528.223V307.359H509.033V321.422ZM587.793 289.781H581.885C579.378 289.781 577.572 289.146 576.465 287.877C575.358 286.575 574.805 284.866 574.805 282.75C574.805 278.062 578.304 275.719 585.303 275.719C591.878 275.719 596.826 276.695 600.146 278.648L597.314 280.797C595.036 279.755 591.032 279.234 585.303 279.234C582.503 279.234 580.615 279.544 579.639 280.162C578.695 280.781 578.223 281.643 578.223 282.75C578.223 283.857 578.483 284.719 579.004 285.338C579.525 285.956 580.485 286.266 581.885 286.266H587.939C592.334 286.266 596.289 287.014 599.805 288.512C603.353 290.009 606.266 292.06 608.545 294.664C610.824 297.236 612.565 300.214 613.77 303.6C614.974 306.952 615.576 310.549 615.576 314.391C615.576 317.516 615.137 320.478 614.258 323.277C613.379 326.077 612.044 328.648 610.254 330.992C608.496 333.336 606.364 335.37 603.857 337.096C601.383 338.788 598.421 340.107 594.971 341.051C591.553 342.027 587.842 342.516 583.838 342.516C577.555 342.516 571.663 341.555 566.162 339.635C560.693 337.747 556.136 335.094 552.49 331.676L555.322 329.576C558.643 332.571 562.793 334.898 567.773 336.559C572.786 338.186 578.141 339 583.838 339C588.298 339 592.318 338.365 595.898 337.096C599.512 335.794 602.474 334.02 604.785 331.773C607.129 329.527 608.919 326.923 610.156 323.961C611.426 320.999 612.061 317.809 612.061 314.391C612.061 309.866 611.149 305.781 609.326 302.135C607.503 298.456 604.72 295.478 600.977 293.199C597.266 290.921 592.871 289.781 587.793 289.781ZM581.885 293.297H587.451C594.059 293.297 599.219 295.315 602.93 299.352C606.673 303.388 608.545 308.401 608.545 314.391C608.545 320.478 606.38 325.523 602.051 329.527C597.721 333.499 591.65 335.484 583.838 335.484C578.63 335.484 573.763 334.768 569.238 333.336C564.714 331.904 560.954 329.885 557.959 327.281L560.693 325.084C563.363 327.265 566.715 328.958 570.752 330.162C574.821 331.367 579.183 331.969 583.838 331.969C590.706 331.969 595.947 330.325 599.561 327.037C603.206 323.749 605.029 319.534 605.029 314.391C605.029 309.312 603.499 305.113 600.439 301.793C597.412 298.473 593.066 296.812 587.402 296.812H581.885C577.132 296.812 573.568 295.51 571.191 292.906C568.815 290.302 567.627 286.917 567.627 282.75C567.627 278.583 569.092 275.198 572.021 272.594C574.984 269.99 579.411 268.688 585.303 268.688C589.437 268.688 593.278 269.176 596.826 270.152C600.374 271.096 603.304 272.464 605.615 274.254L602.832 276.402C598.763 273.603 592.92 272.203 585.303 272.203C580.387 272.203 576.79 273.18 574.512 275.133C572.266 277.053 571.143 279.592 571.143 282.75C571.143 285.94 571.973 288.495 573.633 290.416C575.326 292.337 578.076 293.297 581.885 293.297ZM581.885 300.328H587.256C592.008 300.328 595.573 301.646 597.949 304.283C600.326 306.92 601.514 310.289 601.514 314.391C601.514 318.557 600.033 321.943 597.07 324.547C594.141 327.151 589.73 328.453 583.838 328.453C579.704 328.453 575.846 327.981 572.266 327.037C568.717 326.061 565.788 324.677 563.477 322.887L566.26 320.738C570.329 323.538 576.188 324.938 583.838 324.938C588.753 324.938 592.334 323.977 594.58 322.057C596.859 320.104 597.998 317.548 597.998 314.391C597.998 311.233 597.152 308.694 595.459 306.773C593.766 304.82 591.016 303.844 587.207 303.844H581.885C575.212 303.844 569.987 301.858 566.211 297.887C562.467 293.883 560.596 288.837 560.596 282.75C560.596 276.663 562.76 271.633 567.09 267.662C571.419 263.658 577.49 261.656 585.303 261.656C590.511 261.656 595.361 262.372 599.854 263.805C604.378 265.237 608.138 267.255 611.133 269.859L608.398 272.057C605.729 269.876 602.376 268.183 598.34 266.979C594.303 265.774 589.958 265.172 585.303 265.172C578.434 265.172 573.177 266.816 569.531 270.104C565.918 273.391 564.111 277.607 564.111 282.75C564.111 287.861 565.641 292.076 568.701 295.396C571.761 298.684 576.156 300.328 581.885 300.328ZM581.885 307.359H587.256C589.762 307.359 591.569 308.01 592.676 309.312C593.783 310.615 594.336 312.307 594.336 314.391C594.336 319.078 590.837 321.422 583.838 321.422C577.23 321.422 572.266 320.445 568.945 318.492L571.777 316.344C574.056 317.385 578.076 317.906 583.838 317.906C586.637 317.906 588.509 317.597 589.453 316.979C590.43 316.36 590.918 315.497 590.918 314.391C590.918 313.316 590.641 312.47 590.088 311.852C589.567 311.201 588.59 310.875 587.158 310.875H581.885C577.393 310.875 573.324 310.143 569.678 308.678C566.064 307.213 563.086 305.195 560.742 302.623C558.431 300.051 556.657 297.073 555.42 293.688C554.183 290.302 553.564 286.656 553.564 282.75C553.564 279.625 554.004 276.663 554.883 273.863C555.762 271.064 557.08 268.492 558.838 266.148C560.628 263.805 562.76 261.786 565.234 260.094C567.741 258.368 570.703 257.034 574.121 256.09C577.572 255.113 581.299 254.625 585.303 254.625C591.585 254.625 597.461 255.585 602.93 257.506C608.398 259.394 612.956 262.047 616.602 265.465L613.77 267.564C610.449 264.57 606.299 262.258 601.318 260.631C596.338 258.971 590.999 258.141 585.303 258.141C580.843 258.141 576.807 258.792 573.193 260.094C569.613 261.363 566.65 263.121 564.307 265.367C561.995 267.613 560.205 270.217 558.936 273.18C557.699 276.142 557.08 279.332 557.08 282.75C557.08 287.34 558.008 291.474 559.863 295.152C561.719 298.831 564.551 301.793 568.359 304.039C572.168 306.253 576.676 307.359 581.885 307.359ZM640.967 339H637.451V258.141H640.967V339ZM633.936 339H630.42V258.141H633.936V339ZM626.904 339H623.389V258.141H626.904V339ZM647.998 321.422H685.4V324.938H647.998V328.453H685.4V331.969H647.998V335.484H685.4V339H644.482V258.141H685.4V261.656H647.998V265.172H685.4V268.688H647.998V272.203H685.4V275.719H647.998V289.781H667.188V293.297H647.998V296.812H667.188V300.328H647.998V303.844H667.188V307.359H647.998V321.422ZM776.807 285.777L773.926 287.682C772.168 285.077 769.873 283.027 767.041 281.529C764.242 279.999 761.198 279.234 757.91 279.234C752.572 279.234 748.014 281.122 744.238 284.898C740.462 288.674 738.574 293.232 738.574 298.57C738.574 303.909 740.462 308.466 744.238 312.242C748.014 316.018 752.572 317.906 757.91 317.906C761.198 317.906 764.242 317.141 767.041 315.611C769.873 314.081 772.168 312.014 773.926 309.41L776.758 311.461C774.674 314.521 771.973 316.946 768.652 318.736C765.332 320.527 761.751 321.422 757.91 321.422C754.818 321.422 751.855 320.82 749.023 319.615C746.224 318.411 743.799 316.783 741.748 314.732C739.697 312.682 738.07 310.257 736.865 307.457C735.661 304.625 735.059 301.663 735.059 298.57C735.059 295.478 735.661 292.532 736.865 289.732C738.07 286.9 739.697 284.459 741.748 282.408C743.799 280.357 746.224 278.73 749.023 277.525C751.855 276.321 754.818 275.719 757.91 275.719C761.784 275.719 765.381 276.63 768.701 278.453C772.021 280.243 774.723 282.685 776.807 285.777ZM782.617 281.773L779.688 283.678C777.279 280.162 774.154 277.379 770.312 275.328C766.504 273.245 762.37 272.203 757.91 272.203C753.125 272.203 748.714 273.391 744.678 275.768C740.641 278.111 737.435 281.301 735.059 285.338C732.715 289.374 731.543 293.785 731.543 298.57C731.543 303.355 732.715 307.766 735.059 311.803C737.435 315.839 740.641 319.046 744.678 321.422C748.714 323.766 753.125 324.938 757.91 324.938C762.37 324.938 766.52 323.896 770.361 321.812C774.202 319.729 777.327 316.913 779.736 313.365L782.617 315.367C779.883 319.404 776.335 322.594 771.973 324.938C767.643 327.281 762.956 328.453 757.91 328.453C752.507 328.453 747.51 327.118 742.92 324.449C738.33 321.78 734.701 318.15 732.031 313.561C729.362 308.971 728.027 303.974 728.027 298.57C728.027 293.167 729.362 288.17 732.031 283.58C734.701 278.99 738.33 275.361 742.92 272.691C747.51 270.022 752.507 268.688 757.91 268.688C762.956 268.688 767.643 269.859 771.973 272.203C776.335 274.547 779.883 277.737 782.617 281.773ZM788.477 277.867L785.547 279.771C782.487 275.279 778.516 271.731 773.633 269.127C768.783 266.49 763.542 265.172 757.91 265.172C753.385 265.172 749.056 266.051 744.922 267.809C740.788 269.566 737.223 271.943 734.229 274.938C731.266 277.9 728.906 281.448 727.148 285.582C725.391 289.716 724.512 294.046 724.512 298.57C724.512 303.095 725.391 307.424 727.148 311.559C728.906 315.693 731.266 319.257 734.229 322.252C737.223 325.214 740.788 327.574 744.922 329.332C749.056 331.09 753.385 331.969 757.91 331.969C763.574 331.969 768.831 330.65 773.682 328.014C778.532 325.377 782.487 321.812 785.547 317.32L788.379 319.42C784.993 324.368 780.615 328.29 775.244 331.188C769.906 334.052 764.128 335.484 757.91 335.484C751.237 335.484 745.068 333.84 739.404 330.553C733.74 327.232 729.248 322.74 725.928 317.076C722.64 311.412 720.996 305.243 720.996 298.57C720.996 291.897 722.64 285.729 725.928 280.064C729.248 274.4 733.74 269.924 739.404 266.637C745.068 263.316 751.237 261.656 757.91 261.656C764.16 261.656 769.971 263.121 775.342 266.051C780.713 268.948 785.091 272.887 788.477 277.867ZM794.238 273.863L791.309 275.768C787.598 270.331 782.796 266.035 776.904 262.877C771.045 259.719 764.714 258.141 757.91 258.141C752.441 258.141 747.201 259.215 742.188 261.363C737.207 263.479 732.91 266.344 729.297 269.957C725.684 273.57 722.803 277.883 720.654 282.896C718.538 287.877 717.48 293.102 717.48 298.57C717.48 304.039 718.538 309.28 720.654 314.293C722.803 319.273 725.684 323.57 729.297 327.184C732.91 330.797 737.207 333.678 742.188 335.826C747.201 337.942 752.441 339 757.91 339C764.714 339 771.061 337.405 776.953 334.215C782.845 331.025 787.646 326.712 791.357 321.275L794.189 323.424C790.153 329.283 784.945 333.938 778.564 337.389C772.184 340.807 765.299 342.516 757.91 342.516C751.953 342.516 746.257 341.344 740.82 339C735.417 336.689 730.745 333.58 726.807 329.674C722.9 325.735 719.775 321.064 717.432 315.66C715.12 310.224 713.965 304.527 713.965 298.57C713.965 292.613 715.12 286.933 717.432 281.529C719.775 276.093 722.9 271.422 726.807 267.516C730.745 263.577 735.417 260.452 740.82 258.141C746.257 255.797 751.953 254.625 757.91 254.625C765.332 254.625 772.233 256.35 778.613 259.801C784.993 263.251 790.202 267.939 794.238 273.863ZM829.492 284.898C825.716 288.674 823.828 293.232 823.828 298.57C823.828 303.909 825.716 308.466 829.492 312.242C833.268 316.018 837.826 317.906 843.164 317.906C848.503 317.906 853.06 316.018 856.836 312.242C860.612 308.466 862.5 303.909 862.5 298.57C862.5 293.232 860.612 288.674 856.836 284.898C853.06 281.122 848.503 279.234 843.164 279.234C837.826 279.234 833.268 281.122 829.492 284.898ZM822.119 307.457C820.915 304.625 820.312 301.663 820.312 298.57C820.312 295.478 820.915 292.532 822.119 289.732C823.324 286.9 824.951 284.459 827.002 282.408C829.053 280.357 831.478 278.73 834.277 277.525C837.109 276.321 840.072 275.719 843.164 275.719C846.257 275.719 849.202 276.321 852.002 277.525C854.834 278.73 857.275 280.357 859.326 282.408C861.377 284.459 863.005 286.9 864.209 289.732C865.413 292.532 866.016 295.478 866.016 298.57C866.016 301.663 865.413 304.625 864.209 307.457C863.005 310.257 861.377 312.682 859.326 314.732C857.275 316.783 854.834 318.411 852.002 319.615C849.202 320.82 846.257 321.422 843.164 321.422C840.072 321.422 837.109 320.82 834.277 319.615C831.478 318.411 829.053 316.783 827.002 314.732C824.951 312.682 823.324 310.257 822.119 307.457ZM820.312 285.338C817.969 289.374 816.797 293.785 816.797 298.57C816.797 303.355 817.969 307.766 820.312 311.803C822.689 315.839 825.895 319.046 829.932 321.422C833.968 323.766 838.379 324.938 843.164 324.938C847.949 324.938 852.36 323.766 856.396 321.422C860.433 319.046 863.623 315.839 865.967 311.803C868.343 307.766 869.531 303.355 869.531 298.57C869.531 293.785 868.343 289.374 865.967 285.338C863.623 281.301 860.433 278.111 856.396 275.768C852.36 273.391 847.949 272.203 843.164 272.203C838.379 272.203 833.968 273.391 829.932 275.768C825.895 278.111 822.689 281.301 820.312 285.338ZM817.285 313.561C814.616 308.971 813.281 303.974 813.281 298.57C813.281 293.167 814.616 288.17 817.285 283.58C819.954 278.99 823.584 275.361 828.174 272.691C832.764 270.022 837.76 268.688 843.164 268.688C848.568 268.688 853.564 270.022 858.154 272.691C862.744 275.361 866.374 278.99 869.043 283.58C871.712 288.17 873.047 293.167 873.047 298.57C873.047 303.974 871.712 308.971 869.043 313.561C866.374 318.15 862.744 321.78 858.154 324.449C853.564 327.118 848.568 328.453 843.164 328.453C837.76 328.453 832.764 327.118 828.174 324.449C823.584 321.78 819.954 318.15 817.285 313.561ZM812.402 285.582C810.645 289.716 809.766 294.046 809.766 298.57C809.766 303.095 810.645 307.424 812.402 311.559C814.16 315.693 816.52 319.257 819.482 322.252C822.477 325.214 826.042 327.574 830.176 329.332C834.31 331.09 838.639 331.969 843.164 331.969C847.689 331.969 852.018 331.09 856.152 329.332C860.286 327.574 863.835 325.214 866.797 322.252C869.792 319.257 872.168 315.693 873.926 311.559C875.684 307.424 876.562 303.095 876.562 298.57C876.562 294.046 875.684 289.716 873.926 285.582C872.168 281.448 869.792 277.9 866.797 274.938C863.835 271.943 860.286 269.566 856.152 267.809C852.018 266.051 847.689 265.172 843.164 265.172C838.639 265.172 834.31 266.051 830.176 267.809C826.042 269.566 822.477 271.943 819.482 274.938C816.52 277.9 814.16 281.448 812.402 285.582ZM811.182 317.076C807.894 311.412 806.25 305.243 806.25 298.57C806.25 291.897 807.894 285.729 811.182 280.064C814.502 274.4 818.994 269.924 824.658 266.637C830.322 263.316 836.491 261.656 843.164 261.656C849.837 261.656 856.006 263.316 861.67 266.637C867.334 269.924 871.81 274.4 875.098 280.064C878.418 285.729 880.078 291.897 880.078 298.57C880.078 305.243 878.418 311.412 875.098 317.076C871.81 322.74 867.334 327.232 861.67 330.553C856.006 333.84 849.837 335.484 843.164 335.484C836.491 335.484 830.322 333.84 824.658 330.553C818.994 327.232 814.502 322.74 811.182 317.076ZM805.908 282.896C803.792 287.877 802.734 293.102 802.734 298.57C802.734 304.039 803.792 309.28 805.908 314.293C808.057 319.273 810.938 323.57 814.551 327.184C818.164 330.797 822.461 333.678 827.441 335.826C832.454 337.942 837.695 339 843.164 339C848.633 339 853.857 337.942 858.838 335.826C863.851 333.678 868.164 330.797 871.777 327.184C875.391 323.57 878.255 319.273 880.371 314.293C882.52 309.28 883.594 304.039 883.594 298.57C883.594 293.102 882.52 287.877 880.371 282.896C878.255 277.883 875.391 273.57 871.777 269.957C868.164 266.344 863.851 263.479 858.838 261.363C853.857 259.215 848.633 258.141 843.164 258.141C837.695 258.141 832.454 259.215 827.441 261.363C822.461 263.479 818.164 266.344 814.551 269.957C810.938 273.57 808.057 277.883 805.908 282.896ZM802.686 315.66C800.374 310.224 799.219 304.527 799.219 298.57C799.219 292.613 800.374 286.933 802.686 281.529C805.029 276.093 808.154 271.422 812.061 267.516C815.999 263.577 820.671 260.452 826.074 258.141C831.51 255.797 837.207 254.625 843.164 254.625C849.121 254.625 854.801 255.797 860.205 258.141C865.641 260.452 870.312 263.577 874.219 267.516C878.158 271.422 881.283 276.093 883.594 281.529C885.938 286.933 887.109 292.613 887.109 298.57C887.109 304.527 885.938 310.224 883.594 315.66C881.283 321.064 878.158 325.735 874.219 329.674C870.312 333.58 865.641 336.689 860.205 339C854.801 341.344 849.121 342.516 843.164 342.516C837.207 342.516 831.51 341.344 826.074 339C820.671 336.689 815.999 333.58 812.061 329.674C808.154 325.735 805.029 321.064 802.686 315.66ZM951.807 300.084L948.291 294.273V258.141H951.807V300.084ZM958.838 311.607L955.322 305.699V258.141H958.838V311.607ZM965.869 323.277L962.354 317.32V258.141H965.869V323.277ZM915.479 297.057L918.994 302.867V339H915.479V297.057ZM908.447 285.533L911.963 291.441V339H908.447V285.533ZM901.416 273.863L904.932 279.82V339H901.416V273.863ZM902.637 258.141H906.738L956.445 339H952.344L902.637 258.141ZM910.938 258.141H915.088L964.746 339H960.547L910.938 258.141ZM919.189 258.141H923.291L969.385 333.287V258.141H972.9V339C972.9 339 971.517 339 968.75 339L919.189 258.141ZM897.9 263.854V339H894.385V258.141C894.385 258.141 895.785 258.141 898.584 258.141L948.145 339H944.092L897.9 263.854ZM1014.84 289.781H1008.94C1006.43 289.781 1004.62 289.146 1003.52 287.877C1002.41 286.575 1001.86 284.866 1001.86 282.75C1001.86 278.062 1005.35 275.719 1012.35 275.719C1018.93 275.719 1023.88 276.695 1027.2 278.648L1024.37 280.797C1022.09 279.755 1018.08 279.234 1012.35 279.234C1009.55 279.234 1007.67 279.544 1006.69 280.162C1005.75 280.781 1005.27 281.643 1005.27 282.75C1005.27 283.857 1005.53 284.719 1006.05 285.338C1006.58 285.956 1007.54 286.266 1008.94 286.266H1014.99C1019.38 286.266 1023.34 287.014 1026.86 288.512C1030.4 290.009 1033.32 292.06 1035.6 294.664C1037.87 297.236 1039.62 300.214 1040.82 303.6C1042.02 306.952 1042.63 310.549 1042.63 314.391C1042.63 317.516 1042.19 320.478 1041.31 323.277C1040.43 326.077 1039.1 328.648 1037.3 330.992C1035.55 333.336 1033.41 335.37 1030.91 337.096C1028.43 338.788 1025.47 340.107 1022.02 341.051C1018.6 342.027 1014.89 342.516 1010.89 342.516C1004.61 342.516 998.714 341.555 993.213 339.635C987.744 337.747 983.187 335.094 979.541 331.676L982.373 329.576C985.693 332.571 989.844 334.898 994.824 336.559C999.837 338.186 1005.19 339 1010.89 339C1015.35 339 1019.37 338.365 1022.95 337.096C1026.56 335.794 1029.52 334.02 1031.84 331.773C1034.18 329.527 1035.97 326.923 1037.21 323.961C1038.48 320.999 1039.11 317.809 1039.11 314.391C1039.11 309.866 1038.2 305.781 1036.38 302.135C1034.55 298.456 1031.77 295.478 1028.03 293.199C1024.32 290.921 1019.92 289.781 1014.84 289.781ZM1008.94 293.297H1014.5C1021.11 293.297 1026.27 295.315 1029.98 299.352C1033.72 303.388 1035.6 308.401 1035.6 314.391C1035.6 320.478 1033.43 325.523 1029.1 329.527C1024.77 333.499 1018.7 335.484 1010.89 335.484C1005.68 335.484 1000.81 334.768 996.289 333.336C991.764 331.904 988.005 329.885 985.01 327.281L987.744 325.084C990.413 327.265 993.766 328.958 997.803 330.162C1001.87 331.367 1006.23 331.969 1010.89 331.969C1017.76 331.969 1023 330.325 1026.61 327.037C1030.26 323.749 1032.08 319.534 1032.08 314.391C1032.08 309.312 1030.55 305.113 1027.49 301.793C1024.46 298.473 1020.12 296.812 1014.45 296.812H1008.94C1004.18 296.812 1000.62 295.51 998.242 292.906C995.866 290.302 994.678 286.917 994.678 282.75C994.678 278.583 996.143 275.198 999.072 272.594C1002.03 269.99 1006.46 268.688 1012.35 268.688C1016.49 268.688 1020.33 269.176 1023.88 270.152C1027.43 271.096 1030.35 272.464 1032.67 274.254L1029.88 276.402C1025.81 273.603 1019.97 272.203 1012.35 272.203C1007.44 272.203 1003.84 273.18 1001.56 275.133C999.316 277.053 998.193 279.592 998.193 282.75C998.193 285.94 999.023 288.495 1000.68 290.416C1002.38 292.337 1005.13 293.297 1008.94 293.297ZM1008.94 300.328H1014.31C1019.06 300.328 1022.62 301.646 1025 304.283C1027.38 306.92 1028.56 310.289 1028.56 314.391C1028.56 318.557 1027.08 321.943 1024.12 324.547C1021.19 327.151 1016.78 328.453 1010.89 328.453C1006.75 328.453 1002.9 327.981 999.316 327.037C995.768 326.061 992.839 324.677 990.527 322.887L993.311 320.738C997.38 323.538 1003.24 324.938 1010.89 324.938C1015.8 324.938 1019.38 323.977 1021.63 322.057C1023.91 320.104 1025.05 317.548 1025.05 314.391C1025.05 311.233 1024.2 308.694 1022.51 306.773C1020.82 304.82 1018.07 303.844 1014.26 303.844H1008.94C1002.26 303.844 997.038 301.858 993.262 297.887C989.518 293.883 987.646 288.837 987.646 282.75C987.646 276.663 989.811 271.633 994.141 267.662C998.47 263.658 1004.54 261.656 1012.35 261.656C1017.56 261.656 1022.41 262.372 1026.9 263.805C1031.43 265.237 1035.19 267.255 1038.18 269.859L1035.45 272.057C1032.78 269.876 1029.43 268.183 1025.39 266.979C1021.35 265.774 1017.01 265.172 1012.35 265.172C1005.49 265.172 1000.23 266.816 996.582 270.104C992.969 273.391 991.162 277.607 991.162 282.75C991.162 287.861 992.692 292.076 995.752 295.396C998.812 298.684 1003.21 300.328 1008.94 300.328ZM1008.94 307.359H1014.31C1016.81 307.359 1018.62 308.01 1019.73 309.312C1020.83 310.615 1021.39 312.307 1021.39 314.391C1021.39 319.078 1017.89 321.422 1010.89 321.422C1004.28 321.422 999.316 320.445 995.996 318.492L998.828 316.344C1001.11 317.385 1005.13 317.906 1010.89 317.906C1013.69 317.906 1015.56 317.597 1016.5 316.979C1017.48 316.36 1017.97 315.497 1017.97 314.391C1017.97 313.316 1017.69 312.47 1017.14 311.852C1016.62 311.201 1015.64 310.875 1014.21 310.875H1008.94C1004.44 310.875 1000.37 310.143 996.729 308.678C993.115 307.213 990.137 305.195 987.793 302.623C985.482 300.051 983.708 297.073 982.471 293.688C981.234 290.302 980.615 286.656 980.615 282.75C980.615 279.625 981.055 276.663 981.934 273.863C982.812 271.064 984.131 268.492 985.889 266.148C987.679 263.805 989.811 261.786 992.285 260.094C994.792 258.368 997.754 257.034 1001.17 256.09C1004.62 255.113 1008.35 254.625 1012.35 254.625C1018.64 254.625 1024.51 255.585 1029.98 257.506C1035.45 259.394 1040.01 262.047 1043.65 265.465L1040.82 267.564C1037.5 264.57 1033.35 262.258 1028.37 260.631C1023.39 258.971 1018.05 258.141 1012.35 258.141C1007.89 258.141 1003.86 258.792 1000.24 260.094C996.663 261.363 993.701 263.121 991.357 265.367C989.046 267.613 987.256 270.217 985.986 273.18C984.749 276.142 984.131 279.332 984.131 282.75C984.131 287.34 985.059 291.474 986.914 295.152C988.77 298.831 991.602 301.793 995.41 304.039C999.219 306.253 1003.73 307.359 1008.94 307.359ZM1107.37 303.453V258.141H1110.89V303.453C1110.89 308.401 1108.94 312.633 1105.03 316.148C1101.12 319.664 1096.44 321.422 1090.97 321.422C1085.5 321.422 1080.81 319.664 1076.9 316.148C1073 312.633 1071.04 308.401 1071.04 303.453V258.141H1074.56V303.453C1074.56 307.424 1076.16 310.826 1079.35 313.658C1082.57 316.49 1086.44 317.906 1090.97 317.906C1095.49 317.906 1099.35 316.49 1102.54 313.658C1105.76 310.826 1107.37 307.424 1107.37 303.453ZM1114.4 303.453V258.141H1117.92V303.453C1117.92 306.839 1117.2 310.077 1115.77 313.17C1114.34 316.23 1112.42 318.883 1110.01 321.129C1107.6 323.375 1104.74 325.165 1101.42 326.5C1098.1 327.802 1094.61 328.453 1090.97 328.453C1087.32 328.453 1083.84 327.802 1080.52 326.5C1077.2 325.165 1074.33 323.375 1071.92 321.129C1069.51 318.883 1067.59 316.23 1066.16 313.17C1064.73 310.077 1064.01 306.839 1064.01 303.453V258.141H1067.53V303.453C1067.53 307.327 1068.57 310.924 1070.65 314.244C1072.77 317.532 1075.62 320.136 1079.2 322.057C1082.81 323.977 1086.74 324.938 1090.97 324.938C1095.2 324.938 1099.1 323.977 1102.69 322.057C1106.3 320.136 1109.15 317.532 1111.23 314.244C1113.35 310.924 1114.4 307.327 1114.4 303.453ZM1121.44 303.453V258.141H1124.95V303.453C1124.95 307.783 1124.04 311.933 1122.22 315.904C1120.43 319.843 1118.02 323.245 1114.99 326.109C1111.96 328.974 1108.35 331.253 1104.15 332.945C1099.95 334.638 1095.56 335.484 1090.97 335.484C1086.38 335.484 1081.98 334.638 1077.78 332.945C1073.58 331.253 1069.97 328.974 1066.94 326.109C1063.92 323.245 1061.49 319.843 1059.67 315.904C1057.88 311.933 1056.98 307.783 1056.98 303.453V258.141H1060.5V303.453C1060.5 308.596 1061.87 313.365 1064.6 317.76C1067.33 322.122 1071.03 325.589 1075.68 328.16C1080.37 330.699 1085.47 331.969 1090.97 331.969C1096.47 331.969 1101.55 330.699 1106.2 328.16C1110.89 325.589 1114.6 322.122 1117.33 317.76C1120.07 313.365 1121.44 308.596 1121.44 303.453ZM1128.47 303.453V258.141H1131.98V303.453C1131.98 310.484 1130.14 317.011 1126.46 323.033C1122.79 329.023 1117.79 333.775 1111.47 337.291C1105.19 340.774 1098.36 342.516 1090.97 342.516C1083.58 342.516 1076.73 340.774 1070.41 337.291C1064.13 333.775 1059.15 329.023 1055.47 323.033C1051.79 317.011 1049.95 310.484 1049.95 303.453V258.141H1053.47V303.453C1053.47 308.238 1054.46 312.828 1056.45 317.223C1058.43 321.617 1061.1 325.41 1064.45 328.6C1067.81 331.757 1071.79 334.28 1076.42 336.168C1081.07 338.056 1085.92 339 1090.97 339C1096.01 339 1100.85 338.056 1105.47 336.168C1110.12 334.28 1114.13 331.757 1117.48 328.6C1120.83 325.41 1123.5 321.617 1125.49 317.223C1127.47 312.828 1128.47 308.238 1128.47 303.453ZM1140.97 258.141H1144.48V339H1140.97V258.141ZM1162.06 258.141H1165.58V321.422H1193.7V324.938H1165.58V328.453H1193.7V331.969H1165.58V335.484H1193.7V339H1162.06V258.141ZM1155.03 258.141H1158.54V339H1155.03V258.141ZM1148 258.141H1151.51V339H1148V258.141ZM1199.95 261.656V258.141H1252.69V261.656H1199.95ZM1199.95 268.688V265.172H1252.69V268.688H1199.95ZM1199.95 275.719V272.203H1252.69V275.719H1238.62V339H1235.11V275.719H1231.59V339H1228.08V275.719H1224.56V339H1221.04V275.719H1217.53V339H1214.01V275.719H1199.95ZM1295.61 315.27L1297.02 311.754H1309.03L1310.45 315.27H1295.61ZM1292.87 322.301L1294.24 318.785H1311.77L1313.28 322.301H1292.87ZM1290.14 329.332L1291.5 325.816H1314.55L1316.02 329.332H1290.14ZM1261.57 339H1257.76L1289.75 258.141H1293.55L1325.49 339H1321.73L1291.65 262.877L1261.57 339ZM1292.09 271.227L1294.09 275.719L1269.09 339H1265.33L1292.09 271.227ZM1296 280.504L1297.85 285.338L1276.71 339H1272.9L1296 280.504ZM1299.71 290.172L1301.56 295.104L1284.23 339H1280.47L1299.71 290.172ZM1348.19 339H1344.38L1312.45 258.141H1316.21L1348.19 339ZM1308.64 258.141L1340.62 339H1336.87L1304.88 258.141H1308.64ZM1301.07 258.141L1333.06 339H1329.25L1297.31 258.141H1301.07ZM1411.77 300.084L1408.25 294.273V258.141H1411.77V300.084ZM1418.8 311.607L1415.28 305.699V258.141H1418.8V311.607ZM1425.83 323.277L1422.31 317.32V258.141H1425.83V323.277ZM1375.44 297.057L1378.96 302.867V339H1375.44V297.057ZM1368.41 285.533L1371.92 291.441V339H1368.41V285.533ZM1361.38 273.863L1364.89 279.82V339H1361.38V273.863ZM1362.6 258.141H1366.7L1416.41 339H1412.3L1362.6 258.141ZM1370.9 258.141H1375.05L1424.71 339H1420.51L1370.9 258.141ZM1379.15 258.141H1383.25L1429.35 333.287V258.141H1432.86V339C1432.86 339 1431.48 339 1428.71 339L1379.15 258.141ZM1357.86 263.854V339H1354.35V258.141C1354.35 258.141 1355.75 258.141 1358.54 258.141L1408.11 339H1404.05L1357.86 263.854ZM1440.58 261.656V258.141H1493.31V261.656H1440.58ZM1440.58 268.688V265.172H1493.31V268.688H1440.58ZM1440.58 275.719V272.203H1493.31V275.719H1479.25V339H1475.73V275.719H1472.22V339H1468.7V275.719H1465.19V339H1461.67V275.719H1458.15V339H1454.64V275.719H1440.58ZM1533.98 289.781H1528.08C1525.57 289.781 1523.76 289.146 1522.66 287.877C1521.55 286.575 1521 284.866 1521 282.75C1521 278.062 1524.5 275.719 1531.49 275.719C1538.07 275.719 1543.02 276.695 1546.34 278.648L1543.51 280.797C1541.23 279.755 1537.22 279.234 1531.49 279.234C1528.69 279.234 1526.81 279.544 1525.83 280.162C1524.89 280.781 1524.41 281.643 1524.41 282.75C1524.41 283.857 1524.67 284.719 1525.2 285.338C1525.72 285.956 1526.68 286.266 1528.08 286.266H1534.13C1538.53 286.266 1542.48 287.014 1546 288.512C1549.54 290.009 1552.46 292.06 1554.74 294.664C1557.01 297.236 1558.76 300.214 1559.96 303.6C1561.17 306.952 1561.77 310.549 1561.77 314.391C1561.77 317.516 1561.33 320.478 1560.45 323.277C1559.57 326.077 1558.24 328.648 1556.45 330.992C1554.69 333.336 1552.56 335.37 1550.05 337.096C1547.57 338.788 1544.61 340.107 1541.16 341.051C1537.74 342.027 1534.03 342.516 1530.03 342.516C1523.75 342.516 1517.85 341.555 1512.35 339.635C1506.88 337.747 1502.33 335.094 1498.68 331.676L1501.51 329.576C1504.83 332.571 1508.98 334.898 1513.96 336.559C1518.98 338.186 1524.33 339 1530.03 339C1534.49 339 1538.51 338.365 1542.09 337.096C1545.7 335.794 1548.67 334.02 1550.98 331.773C1553.32 329.527 1555.11 326.923 1556.35 323.961C1557.62 320.999 1558.25 317.809 1558.25 314.391C1558.25 309.866 1557.34 305.781 1555.52 302.135C1553.69 298.456 1550.91 295.478 1547.17 293.199C1543.46 290.921 1539.06 289.781 1533.98 289.781ZM1528.08 293.297H1533.64C1540.25 293.297 1545.41 295.315 1549.12 299.352C1552.86 303.388 1554.74 308.401 1554.74 314.391C1554.74 320.478 1552.57 325.523 1548.24 329.527C1543.91 333.499 1537.84 335.484 1530.03 335.484C1524.82 335.484 1519.95 334.768 1515.43 333.336C1510.9 331.904 1507.15 329.885 1504.15 327.281L1506.88 325.084C1509.55 327.265 1512.91 328.958 1516.94 330.162C1521.01 331.367 1525.37 331.969 1530.03 331.969C1536.9 331.969 1542.14 330.325 1545.75 327.037C1549.4 323.749 1551.22 319.534 1551.22 314.391C1551.22 309.312 1549.69 305.113 1546.63 301.793C1543.6 298.473 1539.26 296.812 1533.59 296.812H1528.08C1523.32 296.812 1519.76 295.51 1517.38 292.906C1515.01 290.302 1513.82 286.917 1513.82 282.75C1513.82 278.583 1515.28 275.198 1518.21 272.594C1521.18 269.99 1525.6 268.688 1531.49 268.688C1535.63 268.688 1539.47 269.176 1543.02 270.152C1546.57 271.096 1549.5 272.464 1551.81 274.254L1549.02 276.402C1544.95 273.603 1539.11 272.203 1531.49 272.203C1526.58 272.203 1522.98 273.18 1520.7 275.133C1518.46 277.053 1517.33 279.592 1517.33 282.75C1517.33 285.94 1518.16 288.495 1519.82 290.416C1521.52 292.337 1524.27 293.297 1528.08 293.297ZM1528.08 300.328H1533.45C1538.2 300.328 1541.76 301.646 1544.14 304.283C1546.52 306.92 1547.71 310.289 1547.71 314.391C1547.71 318.557 1546.22 321.943 1543.26 324.547C1540.33 327.151 1535.92 328.453 1530.03 328.453C1525.9 328.453 1522.04 327.981 1518.46 327.037C1514.91 326.061 1511.98 324.677 1509.67 322.887L1512.45 320.738C1516.52 323.538 1522.38 324.938 1530.03 324.938C1534.94 324.938 1538.53 323.977 1540.77 322.057C1543.05 320.104 1544.19 317.548 1544.19 314.391C1544.19 311.233 1543.34 308.694 1541.65 306.773C1539.96 304.82 1537.21 303.844 1533.4 303.844H1528.08C1521.4 303.844 1516.18 301.858 1512.4 297.887C1508.66 293.883 1506.79 288.837 1506.79 282.75C1506.79 276.663 1508.95 271.633 1513.28 267.662C1517.61 263.658 1523.68 261.656 1531.49 261.656C1536.7 261.656 1541.55 262.372 1546.04 263.805C1550.57 265.237 1554.33 267.255 1557.32 269.859L1554.59 272.057C1551.92 269.876 1548.57 268.183 1544.53 266.979C1540.49 265.774 1536.15 265.172 1531.49 265.172C1524.63 265.172 1519.37 266.816 1515.72 270.104C1512.11 273.391 1510.3 277.607 1510.3 282.75C1510.3 287.861 1511.83 292.076 1514.89 295.396C1517.95 298.684 1522.35 300.328 1528.08 300.328ZM1528.08 307.359H1533.45C1535.95 307.359 1537.76 308.01 1538.87 309.312C1539.97 310.615 1540.53 312.307 1540.53 314.391C1540.53 319.078 1537.03 321.422 1530.03 321.422C1523.42 321.422 1518.46 320.445 1515.14 318.492L1517.97 316.344C1520.25 317.385 1524.27 317.906 1530.03 317.906C1532.83 317.906 1534.7 317.597 1535.64 316.979C1536.62 316.36 1537.11 315.497 1537.11 314.391C1537.11 313.316 1536.83 312.47 1536.28 311.852C1535.76 311.201 1534.78 310.875 1533.35 310.875H1528.08C1523.58 310.875 1519.51 310.143 1515.87 308.678C1512.26 307.213 1509.28 305.195 1506.93 302.623C1504.62 300.051 1502.85 297.073 1501.61 293.688C1500.37 290.302 1499.76 286.656 1499.76 282.75C1499.76 279.625 1500.2 276.663 1501.07 273.863C1501.95 271.064 1503.27 268.492 1505.03 266.148C1506.82 263.805 1508.95 261.786 1511.43 260.094C1513.93 258.368 1516.89 257.034 1520.31 256.09C1523.76 255.113 1527.49 254.625 1531.49 254.625C1537.78 254.625 1543.65 255.585 1549.12 257.506C1554.59 259.394 1559.15 262.047 1562.79 265.465L1559.96 267.564C1556.64 264.57 1552.49 262.258 1547.51 260.631C1542.53 258.971 1537.19 258.141 1531.49 258.141C1527.03 258.141 1523 258.792 1519.38 260.094C1515.8 261.363 1512.84 263.121 1510.5 265.367C1508.19 267.613 1506.4 270.217 1505.13 273.18C1503.89 276.142 1503.27 279.332 1503.27 282.75C1503.27 287.34 1504.2 291.474 1506.05 295.152C1507.91 298.831 1510.74 301.793 1514.55 304.039C1518.36 306.253 1522.87 307.359 1528.08 307.359ZM1602.1 258.141H1605.62V339H1602.1V258.141ZM1623.19 258.141H1626.71V321.422H1654.83V324.938H1626.71V328.453H1654.83V331.969H1626.71V335.484H1654.83V339H1623.19V258.141ZM1616.16 258.141H1619.68V339H1616.16V258.141ZM1609.13 258.141H1612.65V339H1609.13V258.141ZM1661.08 261.656V258.141H1713.82V261.656H1661.08ZM1661.08 268.688V265.172H1713.82V268.688H1661.08ZM1661.08 275.719V272.203H1713.82V275.719H1699.76V339H1696.24V275.719H1692.72V339H1689.21V275.719H1685.69V339H1682.18V275.719H1678.66V339H1675.15V275.719H1661.08ZM1742.92 317.906V279.234C1742.92 279.234 1750.91 279.234 1766.89 279.234C1770.77 279.234 1774.09 281.139 1776.86 284.947C1779.65 288.723 1781.05 293.264 1781.05 298.57C1781.05 303.909 1779.65 308.466 1776.86 312.242C1774.09 316.018 1770.77 317.906 1766.89 317.906H1742.92ZM1746.44 314.391H1766.89C1769.79 314.391 1772.27 312.844 1774.32 309.752C1776.4 306.66 1777.44 302.932 1777.44 298.57C1777.44 294.176 1776.4 290.449 1774.32 287.389C1772.27 284.296 1769.79 282.75 1766.89 282.75H1746.44V314.391ZM1739.4 321.422H1766.89C1771.74 321.422 1775.91 319.192 1779.39 314.732C1782.91 310.24 1784.67 304.853 1784.67 298.57C1784.67 294.436 1783.85 290.611 1782.23 287.096C1780.63 283.58 1778.47 280.813 1775.73 278.795C1773.03 276.744 1770.08 275.719 1766.89 275.719H1739.4V321.422ZM1735.89 324.938V272.203H1766.89C1770.7 272.203 1774.25 273.375 1777.54 275.719C1780.83 278.062 1783.43 281.269 1785.35 285.338C1787.3 289.374 1788.28 293.785 1788.28 298.57C1788.28 303.323 1787.3 307.734 1785.35 311.803C1783.43 315.872 1780.83 319.078 1777.54 321.422C1774.25 323.766 1770.7 324.938 1766.89 324.938H1735.89ZM1732.37 328.453H1766.89C1771.35 328.453 1775.49 327.118 1779.3 324.449C1783.14 321.78 1786.2 318.15 1788.48 313.561C1790.76 308.971 1791.89 303.974 1791.89 298.57C1791.89 293.199 1790.76 288.219 1788.48 283.629C1786.2 279.007 1783.14 275.361 1779.3 272.691C1775.46 270.022 1771.32 268.688 1766.89 268.688H1732.37V328.453ZM1728.86 331.969V265.172H1766.89C1771.97 265.172 1776.71 266.669 1781.1 269.664C1785.5 272.626 1789 276.679 1791.6 281.822C1794.21 286.965 1795.51 292.548 1795.51 298.57C1795.51 304.592 1794.21 310.175 1791.6 315.318C1789 320.462 1785.5 324.531 1781.1 327.525C1776.71 330.488 1771.97 331.969 1766.89 331.969H1728.86ZM1725.34 335.484H1766.89C1771.16 335.484 1775.28 334.508 1779.25 332.555C1783.22 330.602 1786.65 327.981 1789.55 324.693C1792.45 321.406 1794.76 317.483 1796.48 312.926C1798.24 308.336 1799.12 303.551 1799.12 298.57C1799.12 293.59 1798.24 288.821 1796.48 284.264C1794.76 279.706 1792.45 275.784 1789.55 272.496C1786.65 269.176 1783.22 266.539 1779.25 264.586C1775.28 262.633 1771.16 261.656 1766.89 261.656H1725.34V335.484ZM1766.89 339H1721.83V258.141H1766.89C1773.24 258.141 1779.17 259.947 1784.67 263.561C1790.17 267.174 1794.55 272.089 1797.8 278.307C1801.09 284.524 1802.73 291.279 1802.73 298.57C1802.73 304.039 1801.76 309.28 1799.8 314.293C1797.88 319.273 1795.31 323.57 1792.09 327.184C1788.87 330.797 1785.04 333.678 1780.62 335.826C1776.22 337.942 1771.65 339 1766.89 339Z" fill="#BDD0FF"/>
</svg>
